<?xml version="1.0" encoding="UTF-8" standalone="no"?>
<svg
   xmlns:dc="http://purl.org/dc/elements/1.1/"
   xmlns:cc="http://creativecommons.org/ns#"
   xmlns:rdf="http://www.w3.org/1999/02/22-rdf-syntax-ns#"
   xmlns:svg="http://www.w3.org/2000/svg"
   xmlns="http://www.w3.org/2000/svg"
   xmlns:sodipodi="http://sodipodi.sourceforge.net/DTD/sodipodi-0.dtd"
   xmlns:inkscape="http://www.inkscape.org/namespaces/inkscape"
   inkscape:version="1.0 (4035a4fb49, 2020-05-01)"
   sodipodi:docname="RF_Logo_Vector.svg"
   viewBox="0 0 4465.3335 5319.915"
   height="5319.915"
   width="4465.3335"
   id="svg10"
   version="1.1">
  <metadata
     id="metadata16">
    <rdf:RDF>
      <cc:Work
         rdf:about="">
        <dc:format>image/svg+xml</dc:format>
        <dc:type
           rdf:resource="http://purl.org/dc/dcmitype/StillImage" />
        <dc:title></dc:title>
      </cc:Work>
    </rdf:RDF>
  </metadata>
  <defs
     id="defs14" />
  <sodipodi:namedview
     inkscape:current-layer="layer1"
     inkscape:window-maximized="1"
     inkscape:window-y="-8"
     inkscape:window-x="-8"
     inkscape:cy="2870.0071"
     inkscape:cx="786.56414"
     inkscape:zoom="0.12152233"
     inkscape:pagecheckerboard="true"
     showgrid="false"
     id="namedview12"
     inkscape:window-height="1017"
     inkscape:window-width="1920"
     inkscape:pageshadow="2"
     inkscape:pageopacity="0"
     guidetolerance="10"
     gridtolerance="10"
     objecttolerance="10"
     borderopacity="1"
     bordercolor="#666666"
     pagecolor="#ffffff" />
  <g
     inkscape:label="trace"
     id="layer1"
     inkscape:groupmode="layer">
    <path
       id="path24"
       d="m 2224.6667,5317.9378 c -2.2,-1.0405 -24.1,-10.2373 -48.6667,-20.4372 C 2007.0255,5227.3438 1823.658,5139.0828 1666.6667,5052.341 1340.8341,4872.3104 1058.8481,4670.106 800,4430.8782 758.0777,4392.1336 643.5501,4277.8664 606.0142,4237.3336 475.7774,4096.6984 367.8078,3961.4596 268.824,3814.9815 158.2625,3651.3706 61.8308,3472.0277 9.4476,3332.5957 L 0,3307.4481 V 1653.724 0 H 900.00001 1800 v 216.66668 216.6667 h 432 432 V 216.66668 0 h 900.6667 900.6667 v 1653.724 1653.7241 l -9.4476,25.1476 c -28.5279,75.9345 -73.1456,170.043 -124.8363,263.3065 -110.177,198.788 -251.1798,395.243 -417.7929,582.098 -88.2133,98.9306 -206.4104,216.9362 -308.5899,308.09 -337.5621,301.1379 -740.4079,556.934 -1199.3333,761.5443 -75.302,33.5731 -168.45,72.4077 -173.3703,72.2804 -1.8131,-0.047 -5.0964,-0.9365 -7.2964,-1.9771 z M 2284,5295.9216 c 170.2635,-70.9607 339.214,-151.8774 496,-237.5528 261.162,-142.7118 505.2248,-307.9194 721.3334,-488.2752 165.0519,-137.7459 319.4376,-289.4123 454.0919,-446.0934 139.6545,-162.4992 263.8001,-337.71 360.8882,-509.3333 57.6076,-101.8332 111.89,-215.5496 140.2846,-293.8822 l 6.0686,-16.7417 V 1653.3548 2.66667 h -898 -898 v 216.66671 216.6666 H 2232 1797.3333 V 219.33338 2.66667 H 900.00001 2.6666 V 1653.3548 3304.043 l 6.0687,16.7417 c 28.3995,78.3463 82.772705,192.2482 140.29,293.8822 174.152,307.7289 423.12971,609.9413 718.97471,872.7011 334.99149,297.5282 728.14169,547.767 1179.33329,750.6418 40.9315,18.4046 114.7946,50.1899 155.9056,67.0907 l 29.2391,12.0203 5.4276,-2.1254 c 2.9854,-1.1689 23.7278,-9.7521 46.0944,-19.0738 z M 1371.3333,4169.7736 C 1221.9399,4048.6584 1068.8537,3904.9801 944.5932,3769.2585 798.79541,3610.0133 683.552,3452.4598 612.48561,3315.2225 l -12.4856,-24.1111 V 1926.2224 561.33342 h 300.6667 300.66659 v 299.2736 299.27368 l 8.3671,-3.1495 c 37.1691,-13.9903 142.7356,-49.6964 210.9663,-71.3557 305.5758,-97.00264 564.7857,-154.05268 751.3333,-165.36268 28.2809,-1.7145 93.0524,-1.7145 121.3334,0 186.5476,11.31 445.7574,68.36004 751.3333,165.36268 68.2307,21.6593 173.7972,57.3654 210.9663,71.3557 l 8.367,3.1495 V 860.60702 561.33342 h 300.6667 300.6667 v 1364.88898 1364.889 l -12.4856,24.1111 c -117.9113,227.7002 -349.5324,499.9397 -646.4114,759.77 -52.7318,46.1512 -128.6754,109.0077 -131.7038,109.0077 -0.9752,0 -1.3992,-256.7367 -1.3992,-847.2991 V 2489.402 l -3.779,-1.9542 c -7.409,-3.8314 -835.5796,-367.8308 -836.8877,-367.8308 -1.3082,0 -829.4787,363.9994 -836.8878,367.8308 L 1392,2489.402 v 847.2991 c 0,676.9969 -0.3349,847.2817 -1.6667,847.2119 -0.9166,-0.048 -9.4666,-6.4106 -19,-14.1394 z m 437.679,-1868.4174 c 252.3112,-111.0147 421.2494,-184.6442 423.6544,-184.6442 2.4049,0 171.3432,73.6295 423.6544,184.6442 l 419.6545,184.644 0.3455,846.3877 0.3456,846.3878 L 3100,4159.833 c 154.6036,-125.5116 319.2996,-282.2463 446.7884,-425.1908 132.121,-148.1383 235.6594,-292.158 303.1666,-421.6981 l 11.3784,-21.834 V 1927.5551 564.00002 H 3564 3266.6667 v 299.3334 c 0,287.22828 -0.097,299.33338 -2.3972,299.33338 -1.3184,0 -16.7684,-5.1453 -34.3333,-11.4343 -45.1619,-16.1694 -138.4804,-47.454 -192.6028,-64.569 C 2768.2711,1001.5781 2534.8356,947.17242 2360,928.80072 c -54.4804,-5.7248 -74.6244,-6.8007 -127.3333,-6.8007 -52.709,0 -72.853,1.0759 -127.3334,6.8007 -174.8356,18.3717 -408.271,72.77738 -677.3333,157.86278 -54.1224,17.115 -147.4409,48.3996 -192.6028,64.569 -17.5649,6.289 -33.0149,11.4343 -34.3333,11.4343 -2.3003,0 -2.3972,-12.1051 -2.3972,-299.33338 V 564.00002 H 901.33331 604.00001 v 1363.55508 1363.555 l 11.3784,21.834 c 67.5072,129.5401 171.0456,273.5598 303.1665,421.6981 127.48879,142.9445 292.18479,299.6792 446.78839,425.1908 l 23.3334,18.9427 0.3456,-846.3878 0.3454,-846.3877 z"
       style="display:inline;fill:#FFFFFF;stroke-width:1.33333;fill-opacity:1" />
    <path
       id="path3767"
       d="M 2111.3914,5259.816 C 1374.928,4942.8383 754.40548,4467.2159 344.27855,3905.347 220.49615,3735.7665 114.56367,3554.9619 42.408872,3390.1184 L 8.9292961,3313.6316 V 1659.9837 6.3359097 H 901.7693 h 892.84 V 224.40282 442.46974 h 436.1338 436.1339 V 224.40282 6.3359097 h 896.9544 896.9545 l -0.074,1647.8452903 -0.074,1647.8452 -41.0865,94.23 C 4204.1027,3890.371 3757.7333,4401.5759 3201.7582,4790.9321 2946.7984,4969.4835 2614.448,5150.8088 2291.62,5287.4894 l -58.4428,24.7438 z m -711.7712,-1926.6121 4.1144,-843.8399 390.8747,-171.8954 c 214.9811,-94.5425 402.4627,-176.1161 416.6259,-181.2749 24.2212,-8.8221 48.9121,0.7933 415.5615,161.8297 214.3956,94.1651 401.845,176.8998 416.5543,183.8549 l 26.744,12.6457 v 846.0567 c 0,465.3313 2.8431,846.0568 6.318,846.0568 14.7803,0 213.6384,-177.6465 335.5585,-299.7655 192.6244,-192.9386 335.0315,-371.8752 430.2279,-540.5881 l 26.1028,-46.2608 V 1928.849 557.6749 h -304.4708 -304.4707 v 297.12226 c 0,240.87184 -2.0314,296.34274 -10.7301,293.00474 -5.9015,-2.2646 -73.9239,-24.6671 -151.161,-49.7833 -421.3759,-137.02434 -746.4846,-197.61962 -958.5352,-178.65619 -211.1806,18.88558 -455.945,76.08083 -777.675,181.72289 -82.1983,26.9903 -151.63,49.0733 -154.2926,49.0733 -2.6627,0 -4.8412,-133.3088 -4.8412,-296.24186 V 557.6749 H 897.65483 593.18405 v 1367.2527 1367.2527 l 38.16036,66.6401 c 111.86917,195.3592 274.53196,391.0733 513.61759,617.9791 112.0231,106.3162 238.4805,212.2998 245.2453,205.5394 2.9142,-2.9123 7.1499,-385.023 9.4129,-849.135 z"
       style="fill:none;stroke-width:8.22894" />
    <path
       id="path3769"
       d="M 2111.3914,5259.816 C 1374.928,4942.8383 754.40548,4467.2159 344.27855,3905.347 220.49615,3735.7665 114.56367,3554.9619 42.408872,3390.1184 L 8.9292961,3313.6316 V 1659.9837 6.3359097 H 901.7693 h 892.84 V 224.40282 442.46974 h 436.1338 436.1339 V 224.40282 6.3359097 h 896.9544 896.9545 l -0.074,1647.8452903 -0.074,1647.8452 -41.0865,94.23 C 4204.1027,3890.371 3757.7333,4401.5759 3201.7582,4790.9321 2946.7984,4969.4835 2614.448,5150.8088 2291.62,5287.4894 l -58.4428,24.7438 z m -711.7712,-1926.6121 4.1144,-843.8399 390.8747,-171.8954 c 214.9811,-94.5425 402.4627,-176.1161 416.6259,-181.2749 24.2212,-8.8221 48.9121,0.7933 415.5615,161.8297 214.3956,94.1651 401.845,176.8998 416.5543,183.8549 l 26.744,12.6457 v 846.0567 c 0,465.3313 2.8431,846.0568 6.318,846.0568 14.7803,0 213.6384,-177.6465 335.5585,-299.7655 192.6244,-192.9386 335.0315,-371.8752 430.2279,-540.5881 l 26.1028,-46.2608 V 1928.849 557.6749 h -304.4708 -304.4707 v 297.12226 c 0,240.87184 -2.0314,296.34274 -10.7301,293.00474 -5.9015,-2.2646 -73.9239,-24.6671 -151.161,-49.7833 -421.3759,-137.02434 -746.4846,-197.61962 -958.5352,-178.65619 -211.1806,18.88558 -455.945,76.08083 -777.675,181.72289 -82.1983,26.9903 -151.63,49.0733 -154.2926,49.0733 -2.6627,0 -4.8412,-133.3088 -4.8412,-296.24186 V 557.6749 H 897.65483 593.18405 v 1367.2527 1367.2527 l 38.16036,66.6401 c 111.86917,195.3592 274.53196,391.0733 513.61759,617.9791 112.0231,106.3162 238.4805,212.2998 245.2453,205.5394 2.9142,-2.9123 7.1499,-385.023 9.4129,-849.135 z"
       style="fill:none;stroke-width:8.22894" />
    <path
       id="path3771"
       d="M 2111.3914,5259.816 C 1374.928,4942.8383 754.40548,4467.2159 344.27855,3905.347 220.49615,3735.7665 114.56367,3554.9619 42.408872,3390.1184 L 8.9292961,3313.6316 V 1659.9837 6.3359097 H 901.7693 h 892.84 V 224.40282 442.46974 h 436.1338 436.1339 V 224.40282 6.3359097 h 896.9544 896.9545 l -0.074,1647.8452903 -0.074,1647.8452 -41.0865,94.23 C 4204.1027,3890.371 3757.7333,4401.5759 3201.7582,4790.9321 2946.7984,4969.4835 2614.448,5150.8088 2291.62,5287.4894 l -58.4428,24.7438 z m -711.7712,-1926.6121 4.1144,-843.8399 390.8747,-171.8954 c 214.9811,-94.5425 402.4627,-176.1161 416.6259,-181.2749 24.2212,-8.8221 48.9121,0.7933 415.5615,161.8297 214.3956,94.1651 401.845,176.8998 416.5543,183.8549 l 26.744,12.6457 v 846.0567 c 0,465.3313 2.8431,846.0568 6.318,846.0568 14.7803,0 213.6384,-177.6465 335.5585,-299.7655 192.6244,-192.9386 335.0315,-371.8752 430.2279,-540.5881 l 26.1028,-46.2608 V 1928.849 557.6749 h -304.4708 -304.4707 v 297.12226 c 0,240.87184 -2.0314,296.34274 -10.7301,293.00474 -5.9015,-2.2646 -73.9239,-24.6671 -151.161,-49.7833 -421.3759,-137.02434 -746.4846,-197.61962 -958.5352,-178.65619 -211.1806,18.88558 -455.945,76.08083 -777.675,181.72289 -82.1983,26.9903 -151.63,49.0733 -154.2926,49.0733 -2.6627,0 -4.8412,-133.3088 -4.8412,-296.24186 V 557.6749 H 897.65483 593.18405 v 1367.2527 1367.2527 l 38.16036,66.6401 c 111.86917,195.3592 274.53196,391.0733 513.61759,617.9791 112.0231,106.3162 238.4805,212.2998 245.2453,205.5394 2.9142,-2.9123 7.1499,-385.023 9.4129,-849.135 z"
       style="fill:#FFFFFF;fill-opacity:1;stroke-width:8.22894" />
  </g>
</svg>
