<svg width="59" height="70" fill="none" xmlns="http://www.w3.org/2000/svg">
  <g clip-path="url(#a)">
    <path d="M27.5 69.3A56 56 0 0 1 4.4 51.4c-1.6-2.2-3-4.6-4-6.8l-.4-1V0h23.4v5.8h11.4V0h23.5v43.5l-.5 1.2a46.9 46.9 0 0 1-16 18.4A67.8 67.8 0 0 1 30 69.7l-.8.3-1.6-.7ZM18.2 44V32.8l5.2-2.3a426 426 0 0 1 5.5-2.4 924.6 924.6 0 0 1 10.9 4.6l.3.1v22.4A41.8 41.8 0 0 0 50.3 44l.4-.6V7.3h-8v3.9l-.1 3.9-2-.7A35 35 0 0 0 27.9 12a46.2 46.2 0 0 0-12.2 3V7.3h-8v36.1l.5 1A36.3 36.3 0 0 0 18 55l.1-11.2Z" fill="#fff"/>
  </g>
  <defs>
    <clipPath id="a">
      <path fill="#fff" d="M0 0h58.3v70H0z"/>
    </clipPath>
  </defs>
</svg>
