<?xml version="1.0" encoding="UTF-8"?>
<svg version="1.1" viewBox="0 0 4465.3 5319.9" xmlns="http://www.w3.org/2000/svg">
<path d="m2224.7 5317.9c-2.2-1.0405-24.1-10.237-48.667-20.437-168.97-70.157-352.34-158.42-509.33-245.16-325.83-180.03-607.82-382.24-866.67-621.46-41.922-38.745-156.45-153.01-193.99-193.54-130.24-140.64-238.21-275.87-337.19-422.35-110.56-163.61-206.99-342.95-259.38-482.39l-9.4476-25.148v-3307.4h1800v433.33h864v-433.33h1801.3v3307.4l-9.4476 25.148c-28.528 75.934-73.146 170.04-124.84 263.31-110.18 198.79-251.18 395.24-417.79 582.1-88.213 98.931-206.41 216.94-308.59 308.09-337.56 301.14-740.41 556.93-1199.3 761.54-75.302 33.573-168.45 72.408-173.37 72.28-1.8131-0.047-5.0964-0.9365-7.2964-1.9771zm59.333-22.016c170.26-70.961 339.21-151.88 496-237.55 261.16-142.71 505.22-307.92 721.33-488.28 165.05-137.75 319.44-289.41 454.09-446.09 139.65-162.5 263.8-337.71 360.89-509.33 57.608-101.83 111.89-215.55 140.28-293.88l6.0686-16.742v-3301.4h-1796v433.33h-869.33v-433.33h-1794.7v3301.4l6.0687 16.742c28.4 78.346 82.773 192.25 140.29 293.88 174.15 307.73 423.13 609.94 718.97 872.7 334.99 297.53 728.14 547.77 1179.3 750.64 40.932 18.405 114.79 50.19 155.91 67.091l29.239 12.02 5.4276-2.1254c2.9854-1.1689 23.728-9.7521 46.094-19.074zm-912.67-1126.1c-149.39-121.12-302.48-264.79-426.74-400.52-145.8-159.25-261.04-316.8-332.11-454.04l-12.486-24.111v-2729.8h601.33v598.55l8.3671-3.1495c37.169-13.99 142.74-49.696 210.97-71.356 305.58-97.003 564.79-154.05 751.33-165.36 28.281-1.7145 93.052-1.7145 121.33 0 186.55 11.31 445.76 68.36 751.33 165.36 68.231 21.659 173.8 57.365 210.97 71.356l8.367 3.1495v-598.55h601.33v2729.8l-12.486 24.111c-117.91 227.7-349.53 499.94-646.41 759.77-52.732 46.151-128.68 109.01-131.7 109.01-0.9752 0-1.3992-256.74-1.3992-847.3v-847.3l-3.779-1.9542c-7.409-3.8314-835.58-367.83-836.89-367.83-1.3082 0-829.48 364-836.89 367.83l-3.7789 1.9542v847.3c0 677-0.3349 847.28-1.6667 847.21-0.9166-0.048-9.4666-6.4106-19-14.139zm437.68-1868.4c252.31-111.01 421.25-184.64 423.65-184.64 2.4049 0 171.34 73.63 423.65 184.64l419.65 184.64 0.3455 846.39 0.3456 846.39 23.333-18.943c154.6-125.51 319.3-282.25 446.79-425.19 132.12-148.14 235.66-292.16 303.17-421.7l11.378-21.834v-2727.1h-594.67v299.33c0 287.23-0.097 299.33-2.3972 299.33-1.3184 0-16.768-5.1453-34.333-11.434-45.162-16.169-138.48-47.454-192.6-64.569-269.06-85.085-502.5-139.49-677.33-157.86-54.48-5.7248-74.624-6.8007-127.33-6.8007-52.709 0-72.853 1.0759-127.33 6.8007-174.84 18.372-408.27 72.777-677.33 157.86-54.122 17.115-147.44 48.4-192.6 64.569-17.565 6.289-33.015 11.434-34.333 11.434-2.3003 0-2.3972-12.105-2.3972-299.33v-299.33h-594.67v2727.1l11.378 21.834c67.507 129.54 171.05 273.56 303.17 421.7 127.49 142.94 292.18 299.68 446.79 425.19l23.333 18.943 0.3456-846.39 0.3454-846.39z" fill="#fff" stroke-width="1.3333"/>
<path d="m2111.4 5259.8c-736.46-316.98-1357-792.6-1767.1-1354.5-123.78-169.58-229.71-350.39-301.87-515.23l-33.48-76.487v-3307.3h1785.7v436.13h872.27v-436.13h1793.9l-0.074 1647.8-0.074 1647.8-41.086 94.23c-215.45 494.11-661.82 1005.3-1217.8 1394.7-254.96 178.55-587.31 359.88-910.14 496.56l-58.443 24.744zm-711.77-1926.6 4.1144-843.84 390.87-171.9c214.98-94.542 402.46-176.12 416.63-181.27 24.221-8.8221 48.912 0.7933 415.56 161.83 214.4 94.165 401.84 176.9 416.55 183.85l26.744 12.646v846.06c0 465.33 2.8431 846.06 6.318 846.06 14.78 0 213.64-177.65 335.56-299.77 192.62-192.94 335.03-371.88 430.23-540.59l26.103-46.261v-2742.3h-608.94v297.12c0 240.87-2.0314 296.34-10.73 293-5.9015-2.2646-73.924-24.667-151.16-49.783-421.38-137.02-746.48-197.62-958.54-178.66-211.18 18.886-455.94 76.081-777.68 181.72-82.198 26.99-151.63 49.073-154.29 49.073-2.6627 0-4.8412-133.31-4.8412-296.24v-296.24h-608.94v2734.5l38.16 66.64c111.87 195.36 274.53 391.07 513.62 617.98 112.02 106.32 238.48 212.3 245.25 205.54 2.9142-2.9123 7.1499-385.02 9.4129-849.14z" fill="none" stroke-width="8.2289"/>
<path d="m2111.4 5259.8c-736.46-316.98-1357-792.6-1767.1-1354.5-123.78-169.58-229.71-350.39-301.87-515.23l-33.48-76.487v-3307.3h1785.7v436.13h872.27v-436.13h1793.9l-0.074 1647.8-0.074 1647.8-41.086 94.23c-215.45 494.11-661.82 1005.3-1217.8 1394.7-254.96 178.55-587.31 359.88-910.14 496.56l-58.443 24.744zm-711.77-1926.6 4.1144-843.84 390.87-171.9c214.98-94.542 402.46-176.12 416.63-181.27 24.221-8.8221 48.912 0.7933 415.56 161.83 214.4 94.165 401.84 176.9 416.55 183.85l26.744 12.646v846.06c0 465.33 2.8431 846.06 6.318 846.06 14.78 0 213.64-177.65 335.56-299.77 192.62-192.94 335.03-371.88 430.23-540.59l26.103-46.261v-2742.3h-608.94v297.12c0 240.87-2.0314 296.34-10.73 293-5.9015-2.2646-73.924-24.667-151.16-49.783-421.38-137.02-746.48-197.62-958.54-178.66-211.18 18.886-455.94 76.081-777.68 181.72-82.198 26.99-151.63 49.073-154.29 49.073-2.6627 0-4.8412-133.31-4.8412-296.24v-296.24h-608.94v2734.5l38.16 66.64c111.87 195.36 274.53 391.07 513.62 617.98 112.02 106.32 238.48 212.3 245.25 205.54 2.9142-2.9123 7.1499-385.02 9.4129-849.14z" fill="none" stroke-width="8.2289"/>
<path d="m2111.4 5259.8c-736.46-316.98-1357-792.6-1767.1-1354.5-123.78-169.58-229.71-350.39-301.87-515.23l-33.48-76.487v-3307.3h1785.7v436.13h872.27v-436.13h1793.9l-0.074 1647.8-0.074 1647.8-41.086 94.23c-215.45 494.11-661.82 1005.3-1217.8 1394.7-254.96 178.55-587.31 359.88-910.14 496.56l-58.443 24.744zm-711.77-1926.6 4.1144-843.84 390.87-171.9c214.98-94.542 402.46-176.12 416.63-181.27 24.221-8.8221 48.912 0.7933 415.56 161.83 214.4 94.165 401.84 176.9 416.55 183.85l26.744 12.646v846.06c0 465.33 2.8431 846.06 6.318 846.06 14.78 0 213.64-177.65 335.56-299.77 192.62-192.94 335.03-371.88 430.23-540.59l26.103-46.261v-2742.3h-608.94v297.12c0 240.87-2.0314 296.34-10.73 293-5.9015-2.2646-73.924-24.667-151.16-49.783-421.38-137.02-746.48-197.62-958.54-178.66-211.18 18.886-455.94 76.081-777.68 181.72-82.198 26.99-151.63 49.073-154.29 49.073-2.6627 0-4.8412-133.31-4.8412-296.24v-296.24h-608.94v2734.5l38.16 66.64c111.87 195.36 274.53 391.07 513.62 617.98 112.02 106.32 238.48 212.3 245.25 205.54 2.9142-2.9123 7.1499-385.02 9.4129-849.14z" fill="#fff" stroke-width="8.2289"/>
</svg>
