<svg xmlns="http://www.w3.org/2000/svg" xml:space="preserve" width="138.4" height="14.2"><path fill="#FFF" d="M32.4 7.7h8.2V5.4H29.5v8.8h12.3v-2.5h-9.4zM29.5 0h12.1v2.5H29.5zM0 2.5h5.2v11.7h2.9V2.5h5.2V0H0zM88.4 0h12.1v2.5H88.4zM70.2 6.2c.6-.7.9-1.5.9-2.4 0-.5-.1-1.1-.3-1.5-.2-.5-.6-.9-1-1.2-.5-.3-1-.6-1.7-.8-.8-.2-1.6-.3-2.5-.3H58v2.5h7.6c.8 0 1.4.1 1.8.4.4.3.6.7.6 1.2s-.2.9-.6 1.3H58v8.7h8.7c.9 0 1.7-.1 2.4-.3.7-.2 1.3-.5 1.7-.9.5-.4.8-.8 1-1.4.2-.5.3-1.1.3-1.8 0-.8-.2-1.5-.5-2.1-.3-.5-.7-1-1.4-1.4zm-1.7 5c-.4.3-1 .5-1.8.5h-5.9V7.8h5.9c.8 0 1.4.2 1.8.5.4.3.6.8.6 1.4 0 .7-.2 1.1-.6 1.5zM126.2 6.9l5.6-6.9h-3.5l-3.8 4.9-3.7-4.9h-3.5l5.4 7-5.9 7.2h3.5l4.1-5.1 4.1 5.1h3.5zM91.2 7.7h8.2V5.4h-11v8.8h12.2v-2.5h-9.4zM133.8 0h1.8v.3h-.7v1.9h-.4V.3h-.7V0zm2.3 0h.5l.6 1.7.6-1.7h.5v2.2h-.3V.5l-.6 1.7h-.3l-.6-1.7v1.7h-.4V0z"/></svg>